# AST/ASF file generated using VICON BodyLanguage
# -----------------------------------------------
:version 1.10
:name VICON
:units
  mass 1.0
  length 0.45
  angle deg
:documentation
   .ast/.asf automatically generated from VICON data using
   VICON BodyBuilder and BodyLanguage model FoxedUp or BRILLIANT.MOD
:root
   order TX TY TZ RX RY RZ
   axis XYZ
   position 0 0 0  
   orientation 0 0 0 
:bonedata
  begin
     id 1 
     name lhipjoint
     direction 0.635376 -0.686425 0.353719 
     length 2.47244 
     axis 0 0 0  XYZ
  end
  begin
     id 2 
     name lfemur
     direction 0.34202 -0.939693 0  
     length 7.25268  
     axis 0 0 20  XYZ
    dof rx ry rz
    limits (-160.0 20.0)
           (-70.0 70.0)
           (-60.0 70.0)
  end
  begin
     id 3 
     name ltibia
     direction 0.34202 -0.939693 0   
     length 7.6767   
     axis 0 0 20   XYZ
    dof rx
    limits (-10.0 170.0)
  end
  begin
     id 4 
     name lfoot
     direction 0.0803374 -0.220725 0.972022   
     length 2.22945   
     axis -90 7.62852e-016 20   XYZ
    dof rx rz
    limits (-45.0 90.0)
           (-70.0 20.0)
  end
  begin
     id 5 
     name ltoes
     direction 1.53579e-011 -4.21994e-011 1   
     length 1.11848   
     axis -90 7.62852e-016 20   XYZ
    dof rx
    limits (-90.0 20.0)
  end
  begin
     id 6 
     name rhipjoint
     direction -0.664428 -0.664335 0.342336   
     length 2.55466  
     axis 0 0 0  XYZ 
  end
  begin
     id 7 
     name rfemur
     direction -0.34202 -0.939693 0   
     length 6.83172   
     axis 0 0 -20   XYZ
    dof rx ry rz
    limits (-160.0 20.0)
           (-70.0 70.0)
           (-70.0 60.0)
  end
  begin
     id 8 
     name rtibia
     direction -0.34202 -0.939693 0   
     length 7.62692   
     axis 0 0 -20   XYZ
    dof rx
    limits (-10.0 170.0)
 end
 begin
     id 9 
     name rfoot
     direction -0.0949276 -0.260811 0.960711   
     length 2.19684  
     axis -90 -7.62852e-016 -20   XYZ
    dof rx rz
    limits (-45.0 90.0)
           (-20.0 70.0)
  end
  begin
     id 10 
     name rtoes
     direction -1.53543e-011 -4.2183e-011 1   
     length 1.09848   
     axis -90 -7.62852e-016 -20   XYZ
    dof rx
    limits (-90.0 20.0)
  end
  begin
     id 11 
     name lowerback
     direction 0.0118782 0.999815 -0.0151555   
     length 2.15772   
     axis 0 0 0   XYZ
    dof rx ry rz
    limits (-20.0 45.0)
           (-30.0 30.0)
           (-30.0 30.0)
  end
  begin
     id 12 
     name upperback
     direction 0.00130825 0.999065 0.0432113   
     length 2.14863   
     axis 0 0 0   XYZ
    dof rx ry rz
    limits (-20.0 45.0)
           (-30.0 30.0)
           (-30.0 30.0)
  end
  begin
     id 13 
     name thorax
     direction -0.00347005 0.998773 0.0494011   
     length 2.14936   
     axis 0 0 0   XYZ
    dof rx ry rz
    limits (-20.0 45.0)
           (-30.0 30.0)
           (-30.0 30.0)
  end
  begin
     id 14 
     name lowerneck
     direction -0.0262159 0.99424 0.103921   
     length 1.69373   
     axis 0 0 0   XYZ
    dof rx ry rz
    limits (-20.0 45.0)
           (-30.0 30.0)
           (-30.0 30.0)
  end
  begin
     id 15 
     name upperneck
     direction 0.0353511 0.977394 -0.20845   
     length 1.70857   
     axis 0 0 0   XYZ
    dof rx ry rz
    limits (-20.0 45.0)
           (-30.0 30.0)
           (-30.0 30.0)
  end
  begin
     id 16
     name head
     direction 0.0139214 0.996594 -0.0812836  
     length 1.72777  
     axis 0 0 0   XYZ
    dof rx ry rz
    limits (-20.0 45.0)
           (-30.0 30.0)
           (-30.0 30.0)
  end
  begin
     id 17 
     name lclavicle
     direction 0.841247 0.537205 -0.0609508  
     length 3.55371  
     axis 0 0 0   XYZ
    dof ry rz
    limits (-20.0 10.0)
           (0.0 20.0)
  end
  begin
     id 18 
     name lhumerus
     direction 1 -4.48964e-011 1.60116e-018   
     length 4.91377   
     axis -180 -30 -90   XYZ
    dof rx ry rz
    limits (-60.0 90.0)
           (-90.0 90.0)
           (-90.0 90.0)
  end
  begin
     id 19
     name lradius
     direction 1 -4.48989e-011 -8.93847e-027   
     length 3.00291   
     axis -180 -30 -90   XYZ
    dof rx
    limits (-10.0 170.0)
  end
  begin
     id 20
     name lwrist
     direction 1 -4.48932e-011 -7.31504e-027   
     length 1.50145   
     axis 5.74121e-015 90 90   XYZ
    dof ry
    limits (-180.0 0.0)
 end
  begin
     id 21 
     name lhand
     direction 1 -4.48971e-011 -1.46301e-026   
     length 0.450922   
     axis 9.33524e-015 90 90   XYZ
    dof rx rz
    limits (-90.0 90.0)
           (-45.0 45.0)
  end
  begin
     id 22 
     name lfingers
     direction 1 -4.49039e-011 -2.92602e-026   
     length 0.363545   
     axis 1.86705e-014 90 90   XYZ
    dof rx
    limits (0.0 90.0)
  end
  begin
     id 23
     name lthumb
     direction 0.707107 -6.34941e-011 0.707107   
     length 0.52198   
     axis -90 45 2.85299e-015   XYZ
    dof rx rz
    limits (-45.0 45.0)
           (-45.0 45.0)
  end
  begin
     id 24 
     name rclavicle
     direction -0.825079 0.56158 -0.0622297   
     length 3.39909  
     axis 0 0 0   XYZ 
    dof ry rz
    limits (-10.0 20.0)
           (-20.0 0.0)
  end
  begin
     id 25 
     name rhumerus
     direction -1 -4.48965e-011 1.61691e-027  
     length 4.86725   
     axis -180 30 90   XYZ
    dof rx ry rz
    limits (-90.0 60.0)
           (-90.0 90.0)
           (-90.0 90.0)
  end
  begin
     id 26 
     name rradius
     direction -1 -4.48964e-011 -2.25776e-027   
     length 3.17144   
     axis -180 30 90   XYZ
    dof rx
    limits (-10.0 170.0)
  end
  begin
     id 27 
     name rwrist
     direction -1 -4.48961e-011 -7.31504e-027   
     length 1.58572   
     axis 5.74121e-015 -90 -90   XYZ
    dof ry
    limits (-180.0 0.0)
  end
  begin
     id 28
     name rhand
     direction -1 -4.49013e-011 -1.46301e-026   
     length 0.419368   
     axis 9.33524e-015 -90 -90   XYZ
    dof rx rz
    limits (-90.0 90.0)
           (-45.0 45.0)
  end
  begin
     id 29
     name rfingers
     direction -1 -4.489e-011 -2.92602e-026   
     length 0.338105   
     axis 1.86705e-014 -90 -90   XYZ
    dof rx
    limits (0.0 90.0)
  end
  begin
     id 30
     name rthumb
     direction -0.707107 -6.35022e-011 0.707107   
     length 0.485453   
     axis -90 -45 -2.85299e-015   XYZ
    dof rx rz
    limits (-45.0 45.0)
           (-45.0 45.0)
  end
:hierarchy
  begin
    root lhipjoint rhipjoint lowerback
    lhipjoint lfemur
    lfemur ltibia
    ltibia lfoot
    lfoot ltoes
    rhipjoint rfemur
    rfemur rtibia
    rtibia rfoot
    rfoot rtoes
    lowerback upperback
    upperback thorax
    thorax lowerneck lclavicle rclavicle
    lowerneck upperneck
    upperneck head
    lclavicle lhumerus
    lhumerus lradius
    lradius lwrist
    lwrist lhand lthumb
    lhand lfingers
    rclavicle rhumerus
    rhumerus rradius
    rradius rwrist
    rwrist rhand rthumb
    rhand rfingers
  end

#!OML:ASF H:\Swim 2\Project 1\Capture day 1\Session 1\male.ASF
:FULLY-SPECIFIED
:DEGREES
570
root 7.44355 9.9761 12.0872 102.855 -1.30378 5.15844
lowerback -11.929 2.45627 -2.0004
upperback -4.04583 3.62548 -1.18169
thorax 2.39983 1.85146 0.395244
lowerneck -13.947 -6.76753 -7.52279
upperneck 23.7338 -12.0467 17.9547
head 11.7338 -4.13691 6.18655
rclavicle -6.36111e-015 -1.12562e-014
rhumerus 93.6626 -34.9867 -31.7567
rradius 23.4689
rwrist 20.5442
rhand -26.0598 4.29999
rfingers 7.12502
rthumb 0.488036 -25.6792
lclavicle -6.36111e-015 -1.12562e-014
lhumerus 109.576 15.9584 65.1486
lradius 12.8178
lwrist -35.8224
lhand -36.3972 -16.8819
lfingers 7.12502
lthumb -9.49302 12.8843
rfemur -21.7304 -1.88686 -16.8175
rtibia 45.3877
rfoot 27.0692 -20.2141
rtoes 24.5118
lfemur -25.6706 0.874374 13.2178
ltibia 53.4757
lfoot -5.9472 34.5447
ltoes 38.2897
571
root 7.44217 9.97996 12.1085 103.271 -1.31133 5.21732
lowerback -12.1984 2.39806 -1.95485
upperback -4.01369 3.54917 -1.16893
thorax 2.58326 1.81028 0.38704
lowerneck -14.0448 -6.65629 -7.59788
upperneck 23.65 -11.8816 18.0402
head 11.7067 -4.06163 6.25507
rclavicle -4.6118e-014 9.81499e-016
rhumerus 93.4927 -35.346 -31.8732
rradius 23.1807
rwrist 21.7262
rhand -26.0598 4.23821
rfingers 7.12502
rthumb 0.487946 -25.741
lclavicle -4.6118e-014 9.81499e-016
lhumerus 110.4 15.142 68.8038
lradius 11.731
lwrist -40.7393
lhand -36.4989 -18.1893
lfingers 7.12502
lthumb -9.59119 11.5724
rfemur -20.3268 -0.531983 -16.768
rtibia 40.5568
rfoot 27.7878 -21.3562
rtoes 24.5266
lfemur -24.7179 0.232366 13.0114
ltibia 49.1528
lfoot -5.60418 35.5178
ltoes 38.8492
572
root 7.44087 9.98449 12.1284 103.659 -1.30473 5.3038
lowerback -12.4139 2.33631 -1.90494
upperback -3.98447 3.46542 -1.15111
thorax 2.73426 1.76579 0.377207
lowerneck -14.0909 -6.58064 -7.69881
upperneck 23.538 -11.7651 18.1598
head 11.6705 -4.01049 6.33311
rclavicle 9.54166e-015 -9.9734e-015
rhumerus 93.2521 -35.708 -31.9917
rradius 22.887
rwrist 22.9021
rhand -25.9775 4.06846
rfingers 7.12502
rthumb 0.567449 -25.9105
lclavicle 9.54166e-015 -9.9734e-015
lhumerus 111.306 13.8694 73.3839
lradius 10.8545
lwrist -46.4092
lhand -36.5912 -19.2782
lfingers 7.12502
lthumb -9.68024 10.4793
rfemur -18.937 0.888212 -16.7199
rtibia 35.8358
rfoot 28.3444 -22.6316
rtoes 24.4827
lfemur -23.8629 -0.590661 12.8729
ltibia 45.0556
lfoot -5.40676 36.4581
ltoes 39.4025
573
root 7.43944 9.98998 12.1472 104.014 -1.28896 5.41426
lowerback -12.5658 2.27426 -1.86293
upperback -3.9575 3.37999 -1.12903
thorax 2.84753 1.72098 0.37232
lowerneck -14.0984 -6.54319 -7.80385
upperneck 23.4126 -11.7004 18.2847
head 11.6304 -3.98448 6.40525
rclavicle -3.65764e-014 1.60022e-014
rhumerus 92.9445 -36.0686 -32.1262
rradius 22.5962
rwrist 23.9787
rhand -25.8214 3.87108
rfingers 7.12502
rthumb 0.718208 -26.1075
lclavicle -3.65764e-014 1.60022e-014
lhumerus 112.199 12.1339 78.8219
lradius 10.2199
lwrist -52.796
lhand -36.6883 -20.0111
lfingers 7.12502
lthumb -9.77392 9.7421
rfemur -17.5708 2.38039 -16.6778
rtibia 31.2665
rfoot 28.7535 -24.0975
rtoes 24.4869
lfemur -23.1117 -1.61133 12.8015
ltibia 41.2204
lfoot -5.25869 37.3138
ltoes 39.8325
574
root 7.43782 9.99651 12.1645 104.34 -1.27011 5.5283
lowerback -12.6623 2.21656 -1.83559
upperback -3.93471 3.30051 -1.10452
thorax 2.92521 1.6797 0.375957
lowerneck -14.0723 -6.53091 -7.91599
upperneck 23.2748 -11.6699 18.4193
head 11.5856 -3.97545 6.47665
rclavicle -7.95139e-014 2.54693e-014
rhumerus 92.5827 -36.4144 -32.2949
rradius 22.3164
rwrist 24.8871
rhand -25.6348 3.73479
rfingers 7.12502
rthumb 0.898424 -26.2431
lclavicle -7.95139e-014 2.54693e-014
lhumerus 111.897 12.2448 79.4494
lradius 9.79259
lwrist -53.9544
lhand -36.8718 -19.446
lfingers 7.12502
lthumb -9.95092 10.2988
rfemur -16.2618 3.92892 -16.6512
rtibia 26.8903
rfoot 29.0326 -25.7488
rtoes 24.5572
lfemur -22.4671 -2.83159 12.7864
ltibia 37.6763
lfoot -5.14902 38.0887
ltoes 40.1086
575
root 7.43615 10.0038 12.181 104.64 -1.25398 5.63031
lowerback -12.7144 2.16144 -1.81708
upperback -3.91434 3.22427 -1.07943
thorax 2.97562 1.64041 0.383332
lowerneck -14.0243 -6.5242 -8.03628
upperneck 23.1313 -11.6447 18.5539
head 11.5356 -3.97075 6.54865
rclavicle -5.08889e-014 -1.5207e-014
rhumerus 92.9713 -36.5281 -33.515
rradius 21.7114
rwrist 26.4054
rhand -25.5291 3.91019
rfingers 7.12502
rthumb 1.00054 -26.0672
lclavicle -5.08889e-014 -1.5207e-014
lhumerus 111.509 12.3799 80.0865
lradius 9.49326
lwrist -54.767
lhand -37.031 -18.5517
lfingers 7.12502
lthumb -10.1046 11.1856
rfemur -15.0341 5.48315 -16.6418
rtibia 22.7457
rfoot 29.1437 -27.5754
rtoes 24.7829
lfemur -21.9252 -4.23181 12.8149
ltibia 34.4431
lfoot -5.36479 38.7842
ltoes 40.4422
576
root 7.43455 10.0117 12.1959 104.917 -1.25037 5.71032
lowerback -12.7345 2.1106 -1.81608
upperback -3.89844 3.15508 -1.05336
thorax 3.0029 1.60499 0.400904
lowerneck -13.9445 -6.50985 -8.16359
upperneck 22.9766 -11.6031 18.6782
head 11.4714 -3.96241 6.62019
rclavicle -4.29375e-014 3.37934e-015
rhumerus 93.2853 -36.6125 -34.7493
rradius 21.1907
rwrist 27.698
rhand -25.5308 4.14745
rfingers 7.12502
rthumb 0.99895 -25.83
lclavicle -4.29375e-014 3.37934e-015
lhumerus 111.04 12.5676 80.736
lradius 9.30863
lwrist -55.14
lhand -37.1699 -17.4835
lfingers 7.12502
lthumb -10.2385 12.2474
rfemur -13.9102 6.96161 -16.6469
rtibia 18.8651
rfoot 29.1249 -29.4572
rtoes 25.2635
lfemur -21.494 -5.75773 12.8568
ltibia 31.5364
lfoot -5.92364 39.4469
ltoes 40.8268
577
root 7.43346 10.0197 12.2093 105.187 -1.26485 5.77929
lowerback -12.752 2.04621 -1.80495
upperback -3.88147 3.06604 -1.0282
thorax 3.03085 1.55944 0.408769
lowerneck -13.8291 -6.46942 -8.31829
upperneck 22.7896 -11.5151 18.804
head 11.3812 -3.93892 6.70331
rclavicle -9.54166e-015 3.03147e-015
rhumerus 93.582 -36.6405 -36.0537
rradius 20.7773
rwrist 28.7574
rhand -25.6466 4.43154
rfingers 7.12502
rthumb 0.887061 -25.5464
lclavicle -9.54166e-015 3.03147e-015
lhumerus 110.575 12.9088 81.4126
lradius 9.15596
lwrist -55.023
lhand -37.3095 -16.5164
lfingers 7.12502
lthumb -10.3732 13.2077
rfemur -12.9087 8.23397 -16.6447
rtibia 15.2756
rfoot 29.0206 -31.2598
rtoes 25.8395
lfemur -21.2067 -7.33925 12.8869
ltibia 28.9689
lfoot -6.88717 40.1033
ltoes 41.3179
578
root 7.43272 10.0272 12.2207 105.433 -1.2851 5.81351
lowerback -12.7611 1.99171 -1.80488
upperback -3.86523 2.99125 -0.995333
thorax 3.0523 1.5212 0.432525
lowerneck -13.6518 -6.41172 -8.49096
upperneck 22.5554 -11.3938 18.9327
head 11.2559 -3.90677 6.79398
rclavicle 4.29375e-014 -1.96797e-014
rhumerus 93.7477 -36.6537 -37.2459
rradius 20.4661
rwrist 29.4974
rhand -25.8892 4.72154
rfingers 7.12502
rthumb 0.652739 -25.2572
lclavicle 4.29375e-014 -1.96797e-014
lhumerus 110.075 13.3256 82.1284
lradius 9.05371
lwrist -54.41
lhand -37.4913 -15.8087
lfingers 7.12502
lthumb -10.5486 13.9066
rfemur -12.0449 9.26327 -16.5979
rtibia 12.0033
rfoot 28.9206 -32.8943
rtoes 26.4756
lfemur -21.0333 -8.90358 12.8882
ltibia 26.7481
lfoot -8.45022 40.7464
ltoes 42.0333
579
root 7.43239 10.0336 12.2291 105.663 -1.3154 5.82917
lowerback -12.7805 1.94206 -1.82022
upperback -3.84726 2.92498 -0.954132
thorax 3.07981 1.48718 0.47527
lowerneck -13.4229 -6.33265 -8.67052
upperneck 22.2742 -11.2328 19.0495
head 11.0949 -3.86272 6.88496
rclavicle 1.11319e-014 7.95139e-015
rhumerus 93.7806 -36.6616 -38.2938
rradius 20.245
rwrist 29.879
rhand -26.2382 4.99408
rfingers 7.12502
rthumb 0.315718 -24.9854
lclavicle 1.11319e-014 7.95139e-015
lhumerus 109.563 13.8098 82.8846
lradius 8.97779
lwrist -53.353
lhand -37.7261 -15.5281
lfingers 7.12502
lthumb -10.7751 14.1755
rfemur -11.3077 9.57603 -16.3993
rtibia 9.06403
rfoot 29.0244 -33.9475
rtoes 27.0362
lfemur -20.9986 -10.3899 12.8384
ltibia 24.8791
lfoot -10.5871 41.3263
ltoes 42.9465
580
root 7.43244 10.0384 12.2337 105.875 -1.35027 5.83237
lowerback -12.8185 1.90742 -1.86806
upperback -3.8315 2.88333 -0.899967
thorax 3.11249 1.46565 0.554049
lowerneck -13.1426 -6.24513 -8.83934
upperneck 21.9549 -11.0535 19.1454
head 10.9041 -3.81499 6.9664
rclavicle -1.59028e-015 1.09332e-015
rhumerus 93.6553 -36.6758 -39.1602
rradius 20.095
rwrist 29.9413
rhand -26.6674 5.23053
rfingers 7.12502
rthumb -0.0988375 -24.7492
lclavicle -1.59028e-015 1.09332e-015
lhumerus 108.99 14.2732 83.6809
lradius 8.95257
lwrist -51.9805
lhand -38.0022 -15.6923
lfingers 7.12502
lthumb -11.0414 13.9972
rfemur -10.7199 9.9043 -16.1833
rtibia 6.46238
rfoot 28.9637 -35.1413
rtoes 27.4065
lfemur -21.1073 -11.7756 12.7311
ltibia 23.3628
lfoot -13.2973 41.7656
ltoes 44.018
581
root 7.43267 10.0407 12.2349 106.073 -1.38405 5.82502
lowerback -12.886 1.88927 -1.95129
upperback -3.81715 2.86906 -0.832048
thorax 3.15676 1.45789 0.672217
lowerneck -12.8237 -6.15892 -8.97282
upperneck 21.618 -10.8728 19.1976
head 10.6942 -3.76947 7.02331
rclavicle -3.18055e-015 -9.83984e-015
rhumerus 93.3961 -36.6966 -39.8694
rradius 19.9967
rwrist 29.7258
rhand -27.1315 5.3962
rfingers 7.12502
rthumb -0.547133 -24.5828
lclavicle -3.18055e-015 -9.83984e-015
lhumerus 108.373 14.6902 84.5092
lradius 8.9496
lwrist -50.4595
lhand -38.2881 -16.2451
lfingers 7.12502
lthumb -11.3171 13.4296
rfemur -10.2877 10.2585 -15.9296
rtibia 4.20913
rfoot 28.6849 -36.4401
rtoes 27.6086
lfemur -21.3582 -13.0813 12.5747
ltibia 22.1951
lfoot -16.6639 41.9144
ltoes 45.3461
582
root 7.43288 10.0403 12.2327 106.255 -1.4139 5.81545
lowerback -12.9852 1.88262 -2.06107
upperback -3.80201 2.8746 -0.754317
thorax 3.21677 1.45993 0.819808
lowerneck -12.4753 -6.06637 -9.08184
upperneck 21.2701 -10.6855 19.2353
head 10.472 -3.72156 7.0704
rclavicle 1.27222e-014 -4.27387e-015
rhumerus 93.0485 -36.7132 -40.4879
rradius 19.9257
rwrist 29.3134
rhand -27.6151 5.47081
rfingers 7.12502
rthumb -1.01419 -24.5065
lclavicle 1.27222e-014 -4.27387e-015
lhumerus 107.724 15.056 85.3517
lradius 8.94211
lwrist -48.981
lhand -38.5349 -17.0506
lfingers 7.12502
lthumb -11.5552 12.6108
rfemur -10.0582 10.6334 -15.6281
rtibia 2.40469
rfoot 28.1287 -37.7144
rtoes 27.6244
lfemur -21.7486 -14.3527 12.3863
ltibia 21.358
lfoot -20.5746 41.6565
ltoes 46.8236
